# Blender v2.77 (sub 0) OBJ File: ''
# www.blender.org
v -2.247030 0.184146 2.247030
v -2.247030 0.184146 -2.247030
v 2.247030 0.184146 -2.247030
v 2.247029 0.184146 2.247031
v -2.247031 -0.129704 2.247029
v -2.247029 -0.129704 -2.247031
v 2.247031 -0.129704 -2.247029
v 2.247030 -0.129704 2.247030
vt 0.000100 0.999900
vt 0.999900 0.000100
vt 0.999900 0.999900
vt 0.000000 0.000000
vt 0.000000 0.000000
vt 0.000000 0.000000
vt 0.000000 0.000000
vt 0.000000 0.000000
vt 0.000000 0.000000
vt 0.000000 0.000000
vt 0.000000 0.000000
vt 0.000100 0.000100
vn 0.000000 -1.000000 0.000000
vn 0.000000 1.000000 -0.000000
vn 1.000000 -0.000000 0.000000
vn -0.000000 -0.000000 1.000000
vn -1.000000 -0.000000 -0.000000
vn 0.000000 0.000000 -1.000000
s off
f 2/1/1 4/2/1 1/3/1
f 8/4/2 6/5/2 5/6/2
f 5/6/3 2/7/3 1/8/3
f 6/5/4 3/9/4 2/7/4
f 7/10/5 4/11/5 3/9/5
f 1/8/6 8/4/6 5/6/6
f 2/1/1 3/12/1 4/2/1
f 8/4/2 7/10/2 6/5/2
f 5/6/3 6/5/3 2/7/3
f 6/5/4 7/10/4 3/9/4
f 7/10/5 8/4/5 4/11/5
f 1/8/6 4/11/6 8/4/6
